<svg xmlns="http://www.w3.org/2000/svg" xmlns:xlink="http://www.w3.org/1999/xlink" width="1000" height="1180"><g transform="translate(20 19.999999999999993)"><path d="M528 80c17.67 0 32 17.9 32 40s-14.33 40-32 40h-96c-17.67 0-32-17.9-32-40s14.33-40 32-40z" stroke="#000" stroke-width="2" fill="#fff"/><use xlink:href="#a" transform="matrix(1,0,0,1,405,85) translate(8.099999999999994 27.799999999999997)"/><use xlink:href="#b" transform="matrix(1,0,0,1,405,85) translate(67.05 27.799999999999997)"/><use xlink:href="#c" transform="matrix(1,0,0,1,405,85) translate(19.525 49.4)"/><use xlink:href="#d" transform="matrix(1,0,0,1,405,85) translate(77.525 49.4)"/><path d="M480 160v20h-.25v20" stroke="#000" stroke-width="2" fill="none"/><path d="M479.75 200l-4.64-14.27h9.3z"/><path d="M480.65 200.46l-.9-.46-.9.46-5.1-15.73h12zm-4.16-13.73l3.25 10.03 3.26-10.03z"/><path d="M528 360c17.67 0 32 17.9 32 40s-14.33 40-32 40h-96c-17.67 0-32-17.9-32-40s14.33-40 32-40z" stroke="#000" stroke-width="2" fill="#fff"/><use xlink:href="#a" transform="matrix(1,0,0,1,405,365) translate(8.099999999999994 17)"/><use xlink:href="#b" transform="matrix(1,0,0,1,405,365) translate(67.05 17)"/><use xlink:href="#e" transform="matrix(1,0,0,1,405,365) translate(48.5 38.6)"/><use xlink:href="#f" transform="matrix(1,0,0,1,405,365) translate(8.174999999999983 60.2)"/><path d="M479.75 320v19.5h.25V359" stroke="#000" stroke-width="2" fill="none"/><path d="M479.75 320h-1v-.5zm1 0h-1l1-.5zM480 359l-4.64-14.27h9.28z"/><path d="M480.73 360h-1.46L474 343.73h12zm-4-14.27l3.27 10.03 3.26-10.03z"/><path d="M480 440v20h-.25v20" stroke="#000" stroke-width="2" fill="none"/><path d="M479.75 480l-4.64-14.27h9.3z"/><path d="M480.65 480.46l-.9-.46-.9.46-5.1-15.73h12zm-4.16-13.73l3.25 10.03 3.26-10.03z"/><path d="M528 640c17.67 0 32 17.9 32 40s-14.33 40-32 40h-96c-17.67 0-32-17.9-32-40s14.33-40 32-40z" stroke="#000" stroke-width="2" fill="#fff"/><use xlink:href="#a" transform="matrix(1,0,0,1,405,645) translate(8.099999999999994 27.799999999999997)"/><use xlink:href="#g" transform="matrix(1,0,0,1,405,645) translate(67.05 27.799999999999997)"/><use xlink:href="#h" transform="matrix(1,0,0,1,405,645) translate(9.599999999999994 49.4)"/><use xlink:href="#i" transform="matrix(1,0,0,1,405,645) translate(67.6 49.4)"/><path d="M479.75 600v19.5h.25V639" stroke="#000" stroke-width="2" fill="none"/><path d="M479.75 600h-1v-.5zm1 0h-1l1-.5zM480 639l-4.64-14.27h9.28z"/><path d="M480.73 640h-1.46L474 623.73h12zm-4-14.27l3.27 10.03 3.26-10.03z"/><path d="M362 820h-52V400h90" stroke="#000" stroke-width="2" fill="none"/><path d="M362 820l1.96 1H362v-2h1.96zM400 400l-14.27 4.64v-9.28z"/><path d="M400.06 398.97L400 400l.04 1.04-15.3 4.97v-12zm-13.33 4.3l10.03-3.27-10.03-3.26z"/><use xlink:href="#j" transform="matrix(1,0,0,1,248.10000000000002,580.2) translate(0 14.4)"/><path d="M480 720v20h-.25v20" stroke="#000" stroke-width="2" fill="none"/><path d="M479.75 760l-4.64-14.27h9.3z"/><path d="M480.65 760.46l-.9-.46-.9.46-5.1-15.73h12zm-4.16-13.73l3.25 10.03 3.26-10.03z"/><path d="M528 1060c17.67 0 32 17.9 32 40s-14.33 40-32 40h-96c-17.67 0-32-17.9-32-40s14.33-40 32-40z" stroke="#000" stroke-width="2" fill="#fff"/><use xlink:href="#k" transform="matrix(1,0,0,1,405,1065) translate(17.1 27.799999999999997)"/><use xlink:href="#l" transform="matrix(1,0,0,1,405,1065) translate(58.050000000000004 27.799999999999997)"/><use xlink:href="#m" transform="matrix(1,0,0,1,405,1065) translate(19.525 49.4)"/><use xlink:href="#n" transform="matrix(1,0,0,1,405,1065) translate(77.525 49.4)"/><path d="M0 0h960v60H0z" fill="none"/><use xlink:href="#o" transform="matrix(1,0,0,1,5,5.000000000000007) translate(154.9876543209877 31.22222222222222)"/><use xlink:href="#p" transform="matrix(1,0,0,1,5,5.000000000000007) translate(270.70370370370375 31.22222222222222)"/><use xlink:href="#q" transform="matrix(1,0,0,1,5,5.000000000000007) translate(398.4320987654321 31.22222222222222)"/><use xlink:href="#r" transform="matrix(1,0,0,1,5,5.000000000000007) translate(501.8765432098765 31.22222222222222)"/><use xlink:href="#s" transform="matrix(1,0,0,1,5,5.000000000000007) translate(655.358024691358 31.22222222222222)"/><path d="M708 1060c17.67 0 32 17.9 32 40s-14.33 40-32 40h-96c-17.67 0-32-17.9-32-40s14.33-40 32-40z" stroke="#000" stroke-width="2" fill="#fff"/><use xlink:href="#t" transform="matrix(1,0,0,1,585,1065) translate(31.549999999999997 17)"/><use xlink:href="#u" transform="matrix(1,0,0,1,585,1065) translate(15.075000000000003 38.6)"/><use xlink:href="#v" transform="matrix(1,0,0,1,585,1065) translate(94.925 38.6)"/><use xlink:href="#w" transform="matrix(1,0,0,1,585,1065) translate(119.925 38.6)"/><use xlink:href="#x" transform="matrix(1,0,0,1,585,1065) translate(57.5 60.2)"/><path d="M479.75 200l117.75 60-117.75 60L362 260z" stroke="#000" stroke-width="2" fill="#fff"/><use xlink:href="#y" transform="matrix(1,0,0,1,367,205) translate(61.55 47.8)"/><use xlink:href="#z" transform="matrix(1,0,0,1,367,205) translate(138.5 47.8)"/><use xlink:href="#A" transform="matrix(1,0,0,1,367,205) translate(48.07499999999999 69.4)"/><use xlink:href="#B" transform="matrix(1,0,0,1,367,205) translate(98.02499999999999 69.4)"/><use xlink:href="#C" transform="matrix(1,0,0,1,367,205) translate(118.02499999999999 69.4)"/><path d="M479.75 480l117.75 60-117.75 60L362 540z" stroke="#000" stroke-width="2" fill="#fff"/><g><use xlink:href="#D" transform="matrix(1,0,0,1,367,485) translate(68.55 47.8)"/><use xlink:href="#E" transform="matrix(1,0,0,1,367,485) translate(120.45 47.8)"/><use xlink:href="#F" transform="matrix(1,0,0,1,367,485) translate(74.1 69.4)"/><use xlink:href="#G" transform="matrix(1,0,0,1,367,485) translate(100.05 69.4)"/></g><path d="M479.75 760l117.75 60-117.75 60L362 820z" stroke="#000" stroke-width="2" fill="#fff"/><g><use xlink:href="#H" transform="matrix(1,0,0,1,367,765) translate(75.6 37)"/><use xlink:href="#I" transform="matrix(1,0,0,1,367,765) translate(61.025 58.6)"/><use xlink:href="#J" transform="matrix(1,0,0,1,367,765) translate(139.975 58.6)"/><use xlink:href="#K" transform="matrix(1,0,0,1,367,765) translate(79 80.20000000000002)"/></g><path d="M598 730h304l18 18v72H598z" stroke="#d9be60" stroke-width="2" fill="#ffdf71"/><path d="M902 730l18 18h-18z" fill="#d9be60"/><g><use xlink:href="#L" transform="matrix(1,0,0,1,603,735) translate(26.17500000000001 22)"/><use xlink:href="#M" transform="matrix(1,0,0,1,603,735) translate(93.12500000000001 22)"/><use xlink:href="#N" transform="matrix(1,0,0,1,603,735) translate(131.925 22)"/><use xlink:href="#O" transform="matrix(1,0,0,1,603,735) translate(159.875 22)"/><use xlink:href="#P" transform="matrix(1,0,0,1,603,735) translate(193.875 22)"/><use xlink:href="#Q" transform="matrix(1,0,0,1,603,735) translate(227.875 22)"/><use xlink:href="#R" transform="matrix(1,0,0,1,603,735) translate(257.875 22)"/><use xlink:href="#S" transform="matrix(1,0,0,1,603,735) translate(33.77499999999999 43.6)"/><use xlink:href="#T" transform="matrix(1,0,0,1,603,735) translate(112.675 43.6)"/><use xlink:href="#U" transform="matrix(1,0,0,1,603,735) translate(152.675 43.6)"/><use xlink:href="#V" transform="matrix(1,0,0,1,603,735) translate(172.675 43.6)"/><use xlink:href="#W" transform="matrix(1,0,0,1,603,735) translate(219.625 43.6)"/><use xlink:href="#X" transform="matrix(1,0,0,1,603,735) translate(234.625 43.6)"/><use xlink:href="#Y" transform="matrix(1,0,0,1,603,735) translate(263.225 43.6)"/><use xlink:href="#Z" transform="matrix(1,0,0,1,603,735) translate(25.100000000000023 65.2)"/><use xlink:href="#aa" transform="matrix(1,0,0,1,603,735) translate(98.10000000000002 65.2)"/><use xlink:href="#Q" transform="matrix(1,0,0,1,603,735) translate(145.05 65.2)"/><use xlink:href="#ab" transform="matrix(1,0,0,1,603,735) translate(175.05 65.2)"/><use xlink:href="#ac" transform="matrix(1,0,0,1,603,735) translate(208 65.2)"/></g><path d="M480 1020v40" stroke="#000" stroke-width="2" fill="none"/><path d="M480 1060l-4.64-14.27h9.28z"/><path d="M481.05 1060h-2.1l-4.96-15.27h12zm-4.3-13.27l3.25 10.03 3.26-10.03z"/><path d="M540.03 1018.2l103.1 41.8" stroke="#000" stroke-width="2" fill="none"/><path d="M540.4 1017.26l-.75 1.85-2.26-.9 2.02-.82.54-.3zM643.13 1060l-14.96-1.07 3.48-8.6z"/><path d="M644.68 1060h-15.62l-2.33-.17 4.5-11.14zm-15.07-1.97l10.53.75-8.07-6.8z"/><g><use xlink:href="#ad" transform="matrix(1,0,0,1,569.5210231392356,999.2571217104775) translate(0 14.4)"/><use xlink:href="#ae" transform="matrix(1,0,0,1,569.5210231392356,999.2571217104775) translate(65.80000000000001 14.4)"/><use xlink:href="#af" transform="matrix(1,0,0,1,569.5210231392356,999.2571217104775) translate(102.70000000000002 14.4)"/><use xlink:href="#ag" transform="matrix(1,0,0,1,569.5210231392356,999.2571217104775) translate(0 36)"/><use xlink:href="#ah" transform="matrix(1,0,0,1,569.5210231392356,999.2571217104775) translate(20 36)"/><use xlink:href="#ai" transform="matrix(1,0,0,1,569.5210231392356,999.2571217104775) translate(51.900000000000006 36)"/><use xlink:href="#aj" transform="matrix(1,0,0,1,569.5210231392356,999.2571217104775) translate(152.60000000000002 36)"/></g><path d="M528 940c17.67 0 32 17.9 32 40s-14.33 40-32 40h-96c-17.67 0-32-17.9-32-40s14.33-40 32-40z" stroke="#000" stroke-width="2" fill="#fff"/><g><use xlink:href="#a" transform="matrix(1,0,0,1,405,945) translate(8.099999999999994 27.799999999999997)"/><use xlink:href="#g" transform="matrix(1,0,0,1,405,945) translate(67.05 27.799999999999997)"/><use xlink:href="#h" transform="matrix(1,0,0,1,405,945) translate(19.049999999999997 49.4)"/><use xlink:href="#ak" transform="matrix(1,0,0,1,405,945) translate(77.05 49.4)"/></g><path d="M480 880.87V940" stroke="#000" stroke-width="2" fill="none"/><path d="M481 880.87h-2v-1.25l.75.38 1.25-.64zM480 940l-4.64-14.27h9.28z"/><path d="M481.05 940h-2.1L474 924.73h12zm-4.3-13.27l3.25 10.03 3.26-10.03z"/><g><use xlink:href="#al" transform="matrix(1,0,0,1,412.15000000000003,903.3352155743403) translate(0 14.4)"/></g><defs><path d="M135-143c-3-34-86-38-87 0 15 53 115 12 119 90S17 21 10-45l28-5c4 36 97 45 98 0-10-56-113-15-118-90-4-57 82-63 122-42 12 7 21 19 24 35" id="am"/><path d="M100-194c62-1 85 37 85 99 1 63-27 99-86 99S16-35 15-95c0-66 28-99 85-99zM99-20c44 1 53-31 53-75 0-43-8-75-51-75s-53 32-53 75 10 74 51 75" id="an"/><path d="M84 4C-5 8 30-112 23-190h32v120c0 31 7 50 39 49 72-2 45-101 50-169h31l1 190h-30c-1-10 1-25-2-33-11 22-28 36-60 37" id="ao"/><path d="M114-163C36-179 61-72 57 0H25l-1-190h30c1 12-1 29 2 39 6-27 23-49 58-41v29" id="ap"/><path d="M96-169c-40 0-48 33-48 73s9 75 48 75c24 0 41-14 43-38l32 2c-6 37-31 61-74 61-59 0-76-41-82-99-10-93 101-131 147-64 4 7 5 14 7 22l-32 3c-4-21-16-35-41-35" id="aq"/><path d="M100-194c63 0 86 42 84 106H49c0 40 14 67 53 68 26 1 43-12 49-29l28 8c-11 28-37 45-77 45C44 4 14-33 15-96c1-61 26-98 85-98zm52 81c6-60-76-77-97-28-3 7-6 17-6 28h103" id="ar"/><g id="a"><use transform="matrix(0.05,0,0,0.05,0,0)" xlink:href="#am"/><use transform="matrix(0.05,0,0,0.05,9,0)" xlink:href="#an"/><use transform="matrix(0.05,0,0,0.05,19,0)" xlink:href="#ao"/><use transform="matrix(0.05,0,0,0.05,29,0)" xlink:href="#ap"/><use transform="matrix(0.05,0,0,0.05,34.95,0)" xlink:href="#aq"/><use transform="matrix(0.05,0,0,0.05,43.95,0)" xlink:href="#ar"/></g><path d="M24 0v-261h32V0H24" id="as"/><path d="M59-47c-2 24 18 29 38 22v24C64 9 27 4 27-40v-127H5v-23h24l9-43h21v43h35v23H59v120" id="at"/><path d="M24-231v-30h32v30H24zM24 0v-190h32V0H24" id="au"/><path d="M117-194c89-4 53 116 60 194h-32v-121c0-31-8-49-39-48C34-167 62-67 57 0H25l-1-190h30c1 10-1 24 2 32 11-22 29-35 61-36" id="av"/><g id="b"><use transform="matrix(0.05,0,0,0.05,0,0)" xlink:href="#aq"/><use transform="matrix(0.05,0,0,0.05,9,0)" xlink:href="#an"/><use transform="matrix(0.05,0,0,0.05,19,0)" xlink:href="#as"/><use transform="matrix(0.05,0,0,0.05,22.95,0)" xlink:href="#as"/><use transform="matrix(0.05,0,0,0.05,26.899999999999995,0)" xlink:href="#ar"/><use transform="matrix(0.05,0,0,0.05,36.9,0)" xlink:href="#aq"/><use transform="matrix(0.05,0,0,0.05,45.9,0)" xlink:href="#at"/><use transform="matrix(0.05,0,0,0.05,50.9,0)" xlink:href="#au"/><use transform="matrix(0.05,0,0,0.05,54.85,0)" xlink:href="#an"/><use transform="matrix(0.05,0,0,0.05,64.85,0)" xlink:href="#av"/></g><path d="M141-36C126-15 110 5 73 4 37 3 15-17 15-53c-1-64 63-63 125-63 3-35-9-54-41-54-24 1-41 7-42 31l-33-3c5-37 33-52 76-52 45 0 72 20 72 64v82c-1 20 7 32 28 27v20c-31 9-61-2-59-35zM48-53c0 20 12 33 32 33 41-3 63-29 60-74-43 2-92-5-92 41" id="aw"/><path d="M33-154v-36h34v36H33zM33 0v-36h34V0H33" id="ax"/><g id="c"><use transform="matrix(0.05,0,0,0.05,0,0)" xlink:href="#am"/><use transform="matrix(0.05,0,0,0.05,9,0)" xlink:href="#at"/><use transform="matrix(0.05,0,0,0.05,14,0)" xlink:href="#aw"/><use transform="matrix(0.05,0,0,0.05,24,0)" xlink:href="#at"/><use transform="matrix(0.05,0,0,0.05,29,0)" xlink:href="#ao"/><use transform="matrix(0.05,0,0,0.05,39,0)" xlink:href="#am"/><use transform="matrix(0.05,0,0,0.05,48,0)" xlink:href="#ax"/></g><path d="M55-144c13 50 104 24 104 88C159 21 15 23 1-39l26-10c6 40 102 42 102-4-13-50-104-23-104-87 0-71 143-71 148-8l-29 4c-5-35-85-37-89 0" id="ay"/><path d="M50-231l6-30h32l-6 30H50zM6 0l37-190h31L37 0H6" id="az"/><path d="M103-194c29 0 47 14 56 36 2-11 5-23 8-32h30L160-5C157 61 82 97 21 62 9 55 4 45 1 30l28-7c7 42 83 31 92-3 4-16 9-38 13-55-13 20-29 36-62 36-40 0-60-25-60-64 0-71 23-131 91-131zm4 24c-53 0-58 54-61 104-2 27 10 44 36 44 49 0 65-50 67-102 1-29-15-46-42-46" id="aA"/><path d="M67-158c22-48 132-52 116 29L158 0h-32l25-140c3-38-53-32-70-12C52-117 51-52 38 0H6l36-190h30" id="aB"/><path d="M111-194c62-3 86 47 72 106H45c-7 38 6 69 45 68 27-1 43-14 53-32l24 11C152-15 129 4 87 4 38 3 12-23 12-71c0-70 32-119 99-123zm44 81c14-66-71-72-95-28-4 8-8 17-11 28h106" id="aC"/><path d="M133-28C103 26-5 8 13-77c13-62 24-115 90-117 29-1 46 15 56 35l19-102h32L160 0h-30zM45-64c-2 27 10 43 35 43 54-1 69-50 69-103 0-29-15-46-42-46-53-1-58 58-62 106" id="aD"/><g id="d"><use transform="matrix(0.05,0,0,0.05,0,0)" xlink:href="#ay"/><use transform="matrix(0.05,0,0,0.05,9,0)" xlink:href="#az"/><use transform="matrix(0.05,0,0,0.05,12.949999999999998,0)" xlink:href="#aA"/><use transform="matrix(0.05,0,0,0.05,22.95,0)" xlink:href="#aB"/><use transform="matrix(0.05,0,0,0.05,32.95,0)" xlink:href="#aC"/><use transform="matrix(0.05,0,0,0.05,42.95,0)" xlink:href="#aD"/></g><g id="e"><use transform="matrix(0.05,0,0,0.05,0,0)" xlink:href="#am"/><use transform="matrix(0.05,0,0,0.05,9,0)" xlink:href="#at"/><use transform="matrix(0.05,0,0,0.05,14,0)" xlink:href="#aw"/><use transform="matrix(0.05,0,0,0.05,24,0)" xlink:href="#at"/><use transform="matrix(0.05,0,0,0.05,29,0)" xlink:href="#ao"/><use transform="matrix(0.05,0,0,0.05,39,0)" xlink:href="#am"/><use transform="matrix(0.05,0,0,0.05,48,0)" xlink:href="#ax"/></g><path d="M188 0h-37l-8-164L71 0H34L18-190h31l8 164 75-164h34l8 164 74-164h31" id="aE"/><path d="M30-147c31-64 166-65 159 27C183-49 158 1 86 4 9 8 1-88 30-147zM88-20c53 0 68-48 68-100 0-31-11-51-44-50-52 1-68 46-68 97 0 32 13 53 44 53" id="aF"/><path d="M66-151c12-25 30-51 66-40l-6 26C45-176 58-65 38 0H6l36-190h30" id="aG"/><path d="M127 0L80-88 50-66 37 0H6l51-261h31L57-100l99-90h39l-93 82L161 0h-34" id="aH"/><path d="M18-82l6-28h88l-6 28H18" id="aI"/><path d="M67-162c32-53 139-36 121 50C175-51 163 2 97 4 68 4 52-11 42-31 38 6 28 39 22 75H-9l50-265h29c-1 10 0 20-3 28zm89 36c0-26-10-43-35-43-54 0-67 50-69 103-1 29 14 45 42 46 53 0 62-58 62-106" id="aJ"/><g id="f"><use transform="matrix(0.05,0,0,0.05,0,0)" xlink:href="#aE"/><use transform="matrix(0.05,0,0,0.05,12.950000000000001,0)" xlink:href="#aF"/><use transform="matrix(0.05,0,0,0.05,22.950000000000003,0)" xlink:href="#aG"/><use transform="matrix(0.05,0,0,0.05,28.900000000000002,0)" xlink:href="#aH"/><use transform="matrix(0.05,0,0,0.05,37.900000000000006,0)" xlink:href="#aI"/><use transform="matrix(0.05,0,0,0.05,43.85000000000001,0)" xlink:href="#az"/><use transform="matrix(0.05,0,0,0.05,47.80000000000001,0)" xlink:href="#aB"/><use transform="matrix(0.05,0,0,0.05,57.80000000000001,0)" xlink:href="#aI"/><use transform="matrix(0.05,0,0,0.05,63.750000000000014,0)" xlink:href="#aJ"/><use transform="matrix(0.05,0,0,0.05,73.75000000000001,0)" xlink:href="#aG"/><use transform="matrix(0.05,0,0,0.05,79.70000000000002,0)" xlink:href="#aF"/><use transform="matrix(0.05,0,0,0.05,89.70000000000002,0)" xlink:href="#aA"/><use transform="matrix(0.05,0,0,0.05,99.70000000000002,0)" xlink:href="#aG"/><use transform="matrix(0.05,0,0,0.05,105.65000000000003,0)" xlink:href="#aC"/><use transform="matrix(0.05,0,0,0.05,115.65000000000003,0)" xlink:href="#ay"/><use transform="matrix(0.05,0,0,0.05,124.65000000000003,0)" xlink:href="#ay"/></g><g id="g"><use transform="matrix(0.05,0,0,0.05,0,0)" xlink:href="#aq"/><use transform="matrix(0.05,0,0,0.05,9,0)" xlink:href="#an"/><use transform="matrix(0.05,0,0,0.05,19,0)" xlink:href="#as"/><use transform="matrix(0.05,0,0,0.05,22.95,0)" xlink:href="#as"/><use transform="matrix(0.05,0,0,0.05,26.899999999999995,0)" xlink:href="#ar"/><use transform="matrix(0.05,0,0,0.05,36.9,0)" xlink:href="#aq"/><use transform="matrix(0.05,0,0,0.05,45.9,0)" xlink:href="#at"/><use transform="matrix(0.05,0,0,0.05,50.9,0)" xlink:href="#au"/><use transform="matrix(0.05,0,0,0.05,54.85,0)" xlink:href="#an"/><use transform="matrix(0.05,0,0,0.05,64.85,0)" xlink:href="#av"/></g><g id="h"><use transform="matrix(0.05,0,0,0.05,0,0)" xlink:href="#am"/><use transform="matrix(0.05,0,0,0.05,9,0)" xlink:href="#at"/><use transform="matrix(0.05,0,0,0.05,14,0)" xlink:href="#aw"/><use transform="matrix(0.05,0,0,0.05,24,0)" xlink:href="#at"/><use transform="matrix(0.05,0,0,0.05,29,0)" xlink:href="#ao"/><use transform="matrix(0.05,0,0,0.05,39,0)" xlink:href="#am"/><use transform="matrix(0.05,0,0,0.05,48,0)" xlink:href="#ax"/></g><path d="M51-54c-9 22 5 41 31 30L79-1C43 14 10-4 19-52l22-115H19l5-23h22l19-43h21l-9 43h35l-4 23H73" id="aK"/><path d="M89 0H52L20-190h33L74-25l89-165h34" id="aL"/><g id="i"><use transform="matrix(0.05,0,0,0.05,0,0)" xlink:href="#aK"/><use transform="matrix(0.05,0,0,0.05,5,0)" xlink:href="#aF"/><use transform="matrix(0.05,0,0,0.05,15,0)" xlink:href="#aI"/><use transform="matrix(0.05,0,0,0.05,20.95,0)" xlink:href="#aG"/><use transform="matrix(0.05,0,0,0.05,26.899999999999995,0)" xlink:href="#aC"/><use transform="matrix(0.05,0,0,0.05,36.9,0)" xlink:href="#aL"/><use transform="matrix(0.05,0,0,0.05,45.9,0)" xlink:href="#az"/><use transform="matrix(0.05,0,0,0.05,49.85,0)" xlink:href="#aC"/><use transform="matrix(0.05,0,0,0.05,59.85,0)" xlink:href="#aE"/></g><path d="M240-174c0 40-23 61-54 70L253 0h-59l-57-94H76V0H24v-248c93 4 217-23 216 74zM76-134c48-2 112 12 112-38 0-48-66-32-112-35v73" id="aM"/><path d="M185-48c-13 30-37 53-82 52C43 2 14-33 14-96s30-98 90-98c62 0 83 45 84 108H66c0 31 8 55 39 56 18 0 30-7 34-22zm-45-69c5-46-57-63-70-21-2 6-4 13-4 21h74" id="aN"/><path d="M25-224v-37h50v37H25zM75 22c2 45-34 59-81 51V38c22 5 31-5 31-27v-201h50V22" id="aO"/><path d="M190-63c-7 42-38 67-86 67-59 0-84-38-90-98-12-110 154-137 174-36l-49 2c-2-19-15-32-35-32-30 0-35 28-38 64-6 74 65 87 74 30" id="aP"/><path d="M115-3C79 11 28 4 28-45v-112H4v-33h27l15-45h31v45h36v33H77v99c-1 23 16 31 38 25v30" id="aQ"/><g id="j"><use transform="matrix(0.05,0,0,0.05,0,0)" xlink:href="#aM"/><use transform="matrix(0.05,0,0,0.05,12.950000000000001,0)" xlink:href="#aN"/><use transform="matrix(0.05,0,0,0.05,22.950000000000003,0)" xlink:href="#aO"/><use transform="matrix(0.05,0,0,0.05,27.950000000000003,0)" xlink:href="#aN"/><use transform="matrix(0.05,0,0,0.05,37.95,0)" xlink:href="#aP"/><use transform="matrix(0.05,0,0,0.05,47.95,0)" xlink:href="#aQ"/></g><path d="M85-194c31 0 48 13 60 33l-1-100h32l1 261h-30c-2-10 0-23-3-31C134-8 116 4 85 4 32 4 16-35 15-94c0-66 23-100 70-100zm9 24c-40 0-46 34-46 75 0 40 6 74 45 74 42 0 51-32 51-76 0-42-9-74-50-73" id="aR"/><path d="M101-234c-31-9-42 10-38 44h38v23H63V0H32v-167H5v-23h27c-7-52 17-82 69-68v24" id="aS"/><g id="k"><use transform="matrix(0.05,0,0,0.05,0,0)" xlink:href="#aR"/><use transform="matrix(0.05,0,0,0.05,10,0)" xlink:href="#ap"/><use transform="matrix(0.05,0,0,0.05,15.949999999999998,0)" xlink:href="#aw"/><use transform="matrix(0.05,0,0,0.05,25.950000000000003,0)" xlink:href="#aS"/><use transform="matrix(0.05,0,0,0.05,30.950000000000003,0)" xlink:href="#at"/></g><g id="l"><use transform="matrix(0.05,0,0,0.05,0,0)" xlink:href="#aq"/><use transform="matrix(0.05,0,0,0.05,9,0)" xlink:href="#an"/><use transform="matrix(0.05,0,0,0.05,19,0)" xlink:href="#as"/><use transform="matrix(0.05,0,0,0.05,22.95,0)" xlink:href="#as"/><use transform="matrix(0.05,0,0,0.05,26.899999999999995,0)" xlink:href="#ar"/><use transform="matrix(0.05,0,0,0.05,36.9,0)" xlink:href="#aq"/><use transform="matrix(0.05,0,0,0.05,45.9,0)" xlink:href="#at"/><use transform="matrix(0.05,0,0,0.05,50.9,0)" xlink:href="#au"/><use transform="matrix(0.05,0,0,0.05,54.85,0)" xlink:href="#an"/><use transform="matrix(0.05,0,0,0.05,64.85,0)" xlink:href="#av"/></g><g id="m"><use transform="matrix(0.05,0,0,0.05,0,0)" xlink:href="#am"/><use transform="matrix(0.05,0,0,0.05,9,0)" xlink:href="#at"/><use transform="matrix(0.05,0,0,0.05,14,0)" xlink:href="#aw"/><use transform="matrix(0.05,0,0,0.05,24,0)" xlink:href="#at"/><use transform="matrix(0.05,0,0,0.05,29,0)" xlink:href="#ao"/><use transform="matrix(0.05,0,0,0.05,39,0)" xlink:href="#am"/><use transform="matrix(0.05,0,0,0.05,48,0)" xlink:href="#ax"/></g><g id="n"><use transform="matrix(0.05,0,0,0.05,0,0)" xlink:href="#ay"/><use transform="matrix(0.05,0,0,0.05,9,0)" xlink:href="#az"/><use transform="matrix(0.05,0,0,0.05,12.949999999999998,0)" xlink:href="#aA"/><use transform="matrix(0.05,0,0,0.05,22.95,0)" xlink:href="#aB"/><use transform="matrix(0.05,0,0,0.05,32.95,0)" xlink:href="#aC"/><use transform="matrix(0.05,0,0,0.05,42.95,0)" xlink:href="#aD"/></g><path d="M128 0H69L1-190h53L99-40l48-150h52" id="aT"/><path d="M25-224v-37h50v37H25zM25 0v-190h50V0H25" id="aU"/><path d="M231 0h-52l-39-155L100 0H48L-1-190h46L77-45c9-52 24-97 36-145h53l37 145 32-145h46" id="aV"/><g id="o"><use transform="matrix(0.08641975308641975,0,0,0.08641975308641975,0,0)" xlink:href="#aM"/><use transform="matrix(0.08641975308641975,0,0,0.08641975308641975,22.382716049382715,0)" xlink:href="#aN"/><use transform="matrix(0.08641975308641975,0,0,0.08641975308641975,39.666666666666664,0)" xlink:href="#aT"/><use transform="matrix(0.08641975308641975,0,0,0.08641975308641975,56.95061728395061,0)" xlink:href="#aU"/><use transform="matrix(0.08641975308641975,0,0,0.08641975308641975,65.59259259259258,0)" xlink:href="#aN"/><use transform="matrix(0.08641975308641975,0,0,0.08641975308641975,82.87654320987653,0)" xlink:href="#aV"/></g><path d="M135-194c53 0 70 44 70 98 0 56-19 98-73 100-31 1-45-17-59-34 3 33 2 69 2 105H25l-1-265h48c2 10 0 23 3 31 11-24 29-35 60-35zM114-30c33 0 39-31 40-66 0-38-9-64-40-64-56 0-55 130 0 130" id="aW"/><path d="M135-150c-39-12-60 13-60 57V0H25l-1-190h47c2 13-1 29 3 40 6-28 27-53 61-41v41" id="aX"/><path d="M110-194c64 0 96 36 96 99 0 64-35 99-97 99-61 0-95-36-95-99 0-62 34-99 96-99zm-1 164c35 0 45-28 45-65 0-40-10-65-43-65-34 0-45 26-45 65 0 36 10 65 43 65" id="aY"/><path d="M137-138c1-29-70-34-71-4 15 46 118 7 119 86 1 83-164 76-172 9l43-7c4 19 20 25 44 25 33 8 57-30 24-41C81-84 22-81 20-136c-2-80 154-74 161-7" id="aZ"/><g id="p"><use transform="matrix(0.08641975308641975,0,0,0.08641975308641975,0,0)" xlink:href="#aW"/><use transform="matrix(0.08641975308641975,0,0,0.08641975308641975,18.925925925925924,0)" xlink:href="#aX"/><use transform="matrix(0.08641975308641975,0,0,0.08641975308641975,31.02469135802469,0)" xlink:href="#aY"/><use transform="matrix(0.08641975308641975,0,0,0.08641975308641975,49.95061728395061,0)" xlink:href="#aP"/><use transform="matrix(0.08641975308641975,0,0,0.08641975308641975,67.23456790123456,0)" xlink:href="#aN"/><use transform="matrix(0.08641975308641975,0,0,0.08641975308641975,84.5185185185185,0)" xlink:href="#aZ"/><use transform="matrix(0.08641975308641975,0,0,0.08641975308641975,101.80246913580247,0)" xlink:href="#aZ"/></g><path d="M135-194c52 0 70 43 70 98 0 56-19 99-73 100-30 1-46-15-58-35L72 0H24l1-261h50v104c11-23 29-37 60-37zM114-30c31 0 40-27 40-66 0-37-7-63-39-63s-41 28-41 65c0 36 8 64 40 64" id="ba"/><path d="M121-226c-27-7-43 5-38 36h38v33H83V0H34v-157H6v-33h28c-9-59 32-81 87-68v32" id="bb"/><g id="q"><use transform="matrix(0.08641975308641975,0,0,0.08641975308641975,0,0)" xlink:href="#ba"/><use transform="matrix(0.08641975308641975,0,0,0.08641975308641975,18.925925925925924,0)" xlink:href="#aN"/><use transform="matrix(0.08641975308641975,0,0,0.08641975308641975,36.20987654320987,0)" xlink:href="#bb"/><use transform="matrix(0.08641975308641975,0,0,0.08641975308641975,46.49382716049382,0)" xlink:href="#aY"/><use transform="matrix(0.08641975308641975,0,0,0.08641975308641975,65.41975308641975,0)" xlink:href="#aX"/><use transform="matrix(0.08641975308641975,0,0,0.08641975308641975,77.5185185185185,0)" xlink:href="#aN"/></g><path d="M25 0v-261h50V0H25" id="bc"/><path d="M135-194c87-1 58 113 63 194h-50c-7-57 23-157-34-157-59 0-34 97-39 157H25l-1-190h47c2 12-1 28 3 38 12-26 28-41 61-42" id="bd"/><g id="r"><use transform="matrix(0.08641975308641975,0,0,0.08641975308641975,0,0)" xlink:href="#aP"/><use transform="matrix(0.08641975308641975,0,0,0.08641975308641975,17.28395061728395,0)" xlink:href="#aY"/><use transform="matrix(0.08641975308641975,0,0,0.08641975308641975,36.20987654320987,0)" xlink:href="#bc"/><use transform="matrix(0.08641975308641975,0,0,0.08641975308641975,44.85185185185185,0)" xlink:href="#bc"/><use transform="matrix(0.08641975308641975,0,0,0.08641975308641975,53.49382716049382,0)" xlink:href="#aN"/><use transform="matrix(0.08641975308641975,0,0,0.08641975308641975,70.77777777777777,0)" xlink:href="#aP"/><use transform="matrix(0.08641975308641975,0,0,0.08641975308641975,88.06172839506172,0)" xlink:href="#aQ"/><use transform="matrix(0.08641975308641975,0,0,0.08641975308641975,98.34567901234567,0)" xlink:href="#aU"/><use transform="matrix(0.08641975308641975,0,0,0.08641975308641975,106.98765432098764,0)" xlink:href="#aY"/><use transform="matrix(0.08641975308641975,0,0,0.08641975308641975,125.91358024691357,0)" xlink:href="#bd"/></g><path d="M195-6C206 82 75 100 31 46c-4-6-6-13-8-21l49-6c3 16 16 24 34 25 40 0 42-37 40-79-11 22-30 35-61 35-53 0-70-43-70-97 0-56 18-96 73-97 30 0 46 14 59 34l2-30h47zm-90-29c32 0 41-27 41-63 0-35-9-62-40-62-32 0-39 29-40 63 0 36 9 62 39 62" id="be"/><path d="M133-34C117-15 103 5 69 4 32 3 11-16 11-54c-1-60 55-63 116-61 1-26-3-47-28-47-18 1-26 9-28 27l-52-2c7-38 36-58 82-57s74 22 75 68l1 82c-1 14 12 18 25 15v27c-30 8-71 5-69-32zm-48 3c29 0 43-24 42-57-32 0-66-3-65 30 0 17 8 27 23 27" id="bf"/><path d="M85 4C-2 5 27-109 22-190h50c7 57-23 150 33 157 60-5 35-97 40-157h50l1 190h-47c-2-12 1-28-3-38-12 25-28 42-61 42" id="bg"/><g id="s"><use transform="matrix(0.08641975308641975,0,0,0.08641975308641975,0,0)" xlink:href="#aZ"/><use transform="matrix(0.08641975308641975,0,0,0.08641975308641975,17.28395061728395,0)" xlink:href="#aU"/><use transform="matrix(0.08641975308641975,0,0,0.08641975308641975,25.925925925925924,0)" xlink:href="#be"/><use transform="matrix(0.08641975308641975,0,0,0.08641975308641975,44.85185185185185,0)" xlink:href="#bd"/><use transform="matrix(0.08641975308641975,0,0,0.08641975308641975,63.77777777777777,0)" xlink:href="#bf"/><use transform="matrix(0.08641975308641975,0,0,0.08641975308641975,81.06172839506172,0)" xlink:href="#aQ"/><use transform="matrix(0.08641975308641975,0,0,0.08641975308641975,91.34567901234567,0)" xlink:href="#bg"/><use transform="matrix(0.08641975308641975,0,0,0.08641975308641975,110.2716049382716,0)" xlink:href="#aX"/><use transform="matrix(0.08641975308641975,0,0,0.08641975308641975,122.37037037037034,0)" xlink:href="#aN"/></g><g id="t"><use transform="matrix(0.05,0,0,0.05,0,0)" xlink:href="#aR"/><use transform="matrix(0.05,0,0,0.05,10,0)" xlink:href="#ar"/><use transform="matrix(0.05,0,0,0.05,20,0)" xlink:href="#am"/><use transform="matrix(0.05,0,0,0.05,29,0)" xlink:href="#at"/><use transform="matrix(0.05,0,0,0.05,34,0)" xlink:href="#au"/><use transform="matrix(0.05,0,0,0.05,37.95,0)" xlink:href="#av"/><use transform="matrix(0.05,0,0,0.05,47.95,0)" xlink:href="#aw"/><use transform="matrix(0.05,0,0,0.05,57.95,0)" xlink:href="#at"/><use transform="matrix(0.05,0,0,0.05,62.95,0)" xlink:href="#au"/><use transform="matrix(0.05,0,0,0.05,66.9,0)" xlink:href="#an"/><use transform="matrix(0.05,0,0,0.05,76.9,0)" xlink:href="#av"/></g><g id="u"><use transform="matrix(0.05,0,0,0.05,0,0)" xlink:href="#aq"/><use transform="matrix(0.05,0,0,0.05,9,0)" xlink:href="#an"/><use transform="matrix(0.05,0,0,0.05,19,0)" xlink:href="#as"/><use transform="matrix(0.05,0,0,0.05,22.95,0)" xlink:href="#as"/><use transform="matrix(0.05,0,0,0.05,26.899999999999995,0)" xlink:href="#ar"/><use transform="matrix(0.05,0,0,0.05,36.9,0)" xlink:href="#aq"/><use transform="matrix(0.05,0,0,0.05,45.9,0)" xlink:href="#at"/><use transform="matrix(0.05,0,0,0.05,50.9,0)" xlink:href="#au"/><use transform="matrix(0.05,0,0,0.05,54.85,0)" xlink:href="#an"/><use transform="matrix(0.05,0,0,0.05,64.85,0)" xlink:href="#av"/></g><path d="M115-194c55 1 70 41 70 98S169 2 115 4C84 4 66-9 55-30l1 105H24l-1-265h31l2 30c10-21 28-34 59-34zm-8 174c40 0 45-34 45-75s-6-73-45-74c-42 0-51 32-51 76 0 43 10 73 51 73" id="bh"/><g id="v"><use transform="matrix(0.05,0,0,0.05,0,0)" xlink:href="#ao"/><use transform="matrix(0.05,0,0,0.05,10,0)" xlink:href="#bh"/></g><g id="w"><use transform="matrix(0.05,0,0,0.05,0,0)" xlink:href="#at"/><use transform="matrix(0.05,0,0,0.05,5,0)" xlink:href="#an"/></g><g id="x"><use transform="matrix(0.05,0,0,0.05,0,0)" xlink:href="#aR"/><use transform="matrix(0.05,0,0,0.05,10,0)" xlink:href="#aw"/><use transform="matrix(0.05,0,0,0.05,20,0)" xlink:href="#at"/><use transform="matrix(0.05,0,0,0.05,25,0)" xlink:href="#ar"/></g><path d="M212-179c-10-28-35-45-73-45-59 0-87 40-87 99 0 60 29 101 89 101 43 0 62-24 78-52l27 14C228-24 195 4 139 4 59 4 22-46 18-125c-6-104 99-153 187-111 19 9 31 26 39 46" id="bi"/><path d="M106-169C34-169 62-67 57 0H25v-261h32l-1 103c12-21 28-36 61-36 89 0 53 116 60 194h-32v-121c2-32-8-49-39-48" id="bj"/><path d="M177-190C167-65 218 103 67 71c-23-6-38-20-44-43l32-5c15 47 100 32 89-28v-30C133-14 115 1 83 1 29 1 15-40 15-95c0-56 16-97 71-98 29-1 48 16 59 35 1-10 0-23 2-32h30zM94-22c36 0 50-32 50-73 0-42-14-75-50-75-39 0-46 34-46 75s6 73 46 73" id="bk"/><g id="y"><use transform="matrix(0.05,0,0,0.05,0,0)" xlink:href="#bi"/><use transform="matrix(0.05,0,0,0.05,12.950000000000001,0)" xlink:href="#bj"/><use transform="matrix(0.05,0,0,0.05,22.950000000000003,0)" xlink:href="#aw"/><use transform="matrix(0.05,0,0,0.05,32.95,0)" xlink:href="#av"/><use transform="matrix(0.05,0,0,0.05,42.95,0)" xlink:href="#bk"/><use transform="matrix(0.05,0,0,0.05,52.95,0)" xlink:href="#ar"/><use transform="matrix(0.05,0,0,0.05,62.95,0)" xlink:href="#am"/></g><g id="z"><use transform="matrix(0.05,0,0,0.05,0,0)" xlink:href="#aw"/><use transform="matrix(0.05,0,0,0.05,10,0)" xlink:href="#ap"/><use transform="matrix(0.05,0,0,0.05,15.949999999999998,0)" xlink:href="#ar"/></g><path d="M210-169c-67 3-38 105-44 169h-31v-121c0-29-5-50-35-48C34-165 62-65 56 0H25l-1-190h30c1 10-1 24 2 32 10-44 99-50 107 0 11-21 27-35 58-36 85-2 47 119 55 194h-31v-121c0-29-5-49-35-48" id="bl"/><g id="A"><use transform="matrix(0.05,0,0,0.05,0,0)" xlink:href="#bl"/><use transform="matrix(0.05,0,0,0.05,14.950000000000001,0)" xlink:href="#aw"/><use transform="matrix(0.05,0,0,0.05,24.950000000000003,0)" xlink:href="#aR"/><use transform="matrix(0.05,0,0,0.05,34.95,0)" xlink:href="#ar"/></g><g id="B"><use transform="matrix(0.05,0,0,0.05,0,0)" xlink:href="#at"/><use transform="matrix(0.05,0,0,0.05,5,0)" xlink:href="#an"/></g><g id="C"><use transform="matrix(0.05,0,0,0.05,0,0)" xlink:href="#ap"/><use transform="matrix(0.05,0,0,0.05,5.95,0)" xlink:href="#ar"/><use transform="matrix(0.05,0,0,0.05,15.949999999999998,0)" xlink:href="#aq"/><use transform="matrix(0.05,0,0,0.05,24.95,0)" xlink:href="#an"/><use transform="matrix(0.05,0,0,0.05,34.95,0)" xlink:href="#ap"/><use transform="matrix(0.05,0,0,0.05,40.900000000000006,0)" xlink:href="#aR"/><use transform="matrix(0.05,0,0,0.05,50.900000000000006,0)" xlink:href="#am"/></g><path d="M30 0v-248h187v28H63v79h144v27H63v87h162V0H30" id="bm"/><g id="D"><use transform="matrix(0.05,0,0,0.05,0,0)" xlink:href="#bm"/><use transform="matrix(0.05,0,0,0.05,12,0)" xlink:href="#aR"/><use transform="matrix(0.05,0,0,0.05,22,0)" xlink:href="#au"/><use transform="matrix(0.05,0,0,0.05,25.950000000000003,0)" xlink:href="#at"/><use transform="matrix(0.05,0,0,0.05,30.950000000000003,0)" xlink:href="#an"/><use transform="matrix(0.05,0,0,0.05,40.95,0)" xlink:href="#ap"/></g><path d="M143 0L79-87 56-68V0H24v-261h32v163l83-92h37l-77 82L181 0h-38" id="bn"/><g id="E"><use transform="matrix(0.05,0,0,0.05,0,0)" xlink:href="#aw"/><use transform="matrix(0.05,0,0,0.05,10,0)" xlink:href="#am"/><use transform="matrix(0.05,0,0,0.05,19,0)" xlink:href="#bn"/><use transform="matrix(0.05,0,0,0.05,28,0)" xlink:href="#am"/></g><g id="F"><use transform="matrix(0.05,0,0,0.05,0,0)" xlink:href="#aS"/><use transform="matrix(0.05,0,0,0.05,5,0)" xlink:href="#an"/><use transform="matrix(0.05,0,0,0.05,15,0)" xlink:href="#ap"/></g><path d="M108 0H70L1-190h34L89-25l56-165h34" id="bo"/><path d="M206 0h-36l-40-164L89 0H53L-1-190h32L70-26l43-164h34l41 164 42-164h31" id="bp"/><g id="G"><use transform="matrix(0.05,0,0,0.05,0,0)" xlink:href="#ap"/><use transform="matrix(0.05,0,0,0.05,5.95,0)" xlink:href="#ar"/><use transform="matrix(0.05,0,0,0.05,15.949999999999998,0)" xlink:href="#bo"/><use transform="matrix(0.05,0,0,0.05,24.95,0)" xlink:href="#au"/><use transform="matrix(0.05,0,0,0.05,28.899999999999995,0)" xlink:href="#ar"/><use transform="matrix(0.05,0,0,0.05,38.9,0)" xlink:href="#bp"/></g><path d="M233-177c-1 41-23 64-60 70L243 0h-38l-65-103H63V0H30v-248c88 3 205-21 203 71zM63-129c60-2 137 13 137-47 0-61-80-42-137-45v92" id="bq"/><g id="H"><use transform="matrix(0.05,0,0,0.05,0,0)" xlink:href="#bq"/><use transform="matrix(0.05,0,0,0.05,12.950000000000001,0)" xlink:href="#ar"/><use transform="matrix(0.05,0,0,0.05,22.950000000000003,0)" xlink:href="#bo"/><use transform="matrix(0.05,0,0,0.05,31.950000000000003,0)" xlink:href="#au"/><use transform="matrix(0.05,0,0,0.05,35.900000000000006,0)" xlink:href="#ar"/><use transform="matrix(0.05,0,0,0.05,45.900000000000006,0)" xlink:href="#bp"/><use transform="matrix(0.05,0,0,0.05,58.85,0)" xlink:href="#ar"/><use transform="matrix(0.05,0,0,0.05,68.85000000000001,0)" xlink:href="#ap"/></g><g id="I"><use transform="matrix(0.05,0,0,0.05,0,0)" xlink:href="#aw"/><use transform="matrix(0.05,0,0,0.05,10,0)" xlink:href="#bh"/><use transform="matrix(0.05,0,0,0.05,20,0)" xlink:href="#bh"/><use transform="matrix(0.05,0,0,0.05,30,0)" xlink:href="#ap"/><use transform="matrix(0.05,0,0,0.05,35.95,0)" xlink:href="#an"/><use transform="matrix(0.05,0,0,0.05,45.95,0)" xlink:href="#bo"/><use transform="matrix(0.05,0,0,0.05,54.95,0)" xlink:href="#ar"/><use transform="matrix(0.05,0,0,0.05,64.95,0)" xlink:href="#am"/></g><g id="J"><use transform="matrix(0.05,0,0,0.05,0,0)" xlink:href="#at"/><use transform="matrix(0.05,0,0,0.05,5,0)" xlink:href="#bj"/><use transform="matrix(0.05,0,0,0.05,15,0)" xlink:href="#ar"/></g><g id="K"><use transform="matrix(0.05,0,0,0.05,0,0)" xlink:href="#aq"/><use transform="matrix(0.05,0,0,0.05,9,0)" xlink:href="#bj"/><use transform="matrix(0.05,0,0,0.05,19,0)" xlink:href="#aw"/><use transform="matrix(0.05,0,0,0.05,29,0)" xlink:href="#av"/><use transform="matrix(0.05,0,0,0.05,39,0)" xlink:href="#bk"/><use transform="matrix(0.05,0,0,0.05,49,0)" xlink:href="#ar"/><use transform="matrix(0.05,0,0,0.05,59,0)" xlink:href="#am"/></g><g id="L"><use transform="matrix(0.05,0,0,0.05,0,0)" xlink:href="#aM"/><use transform="matrix(0.05,0,0,0.05,12.950000000000001,0)" xlink:href="#aN"/><use transform="matrix(0.05,0,0,0.05,22.950000000000003,0)" xlink:href="#aT"/><use transform="matrix(0.05,0,0,0.05,32.95,0)" xlink:href="#aU"/><use transform="matrix(0.05,0,0,0.05,37.95,0)" xlink:href="#aN"/><use transform="matrix(0.05,0,0,0.05,47.95,0)" xlink:href="#aV"/></g><path d="M88-194c31-1 46 15 58 34l-1-101h50l1 261h-48c-2-10 0-23-3-31C134-8 116 4 84 4 32 4 16-41 15-95c0-56 19-97 73-99zm17 164c33 0 40-30 41-66 1-37-9-64-41-64s-38 30-39 65c0 43 13 65 39 65" id="br"/><path d="M35-132v-50h50v50H35zM35 0v-49h50V0H35" id="bs"/><g id="M"><use transform="matrix(0.05,0,0,0.05,0,0)" xlink:href="#br"/><use transform="matrix(0.05,0,0,0.05,10.950000000000001,0)" xlink:href="#aU"/><use transform="matrix(0.05,0,0,0.05,15.950000000000001,0)" xlink:href="#bb"/><use transform="matrix(0.05,0,0,0.05,21.900000000000002,0)" xlink:href="#bb"/><use transform="matrix(0.05,0,0,0.05,27.85,0)" xlink:href="#bs"/></g><g id="N"><use transform="matrix(0.05,0,0,0.05,0,0)" xlink:href="#bp"/><use transform="matrix(0.05,0,0,0.05,12.950000000000001,0)" xlink:href="#ar"/></g><g id="O"><use transform="matrix(0.05,0,0,0.05,0,0)" xlink:href="#aq"/><use transform="matrix(0.05,0,0,0.05,9,0)" xlink:href="#aw"/><use transform="matrix(0.05,0,0,0.05,19,0)" xlink:href="#av"/></g><g id="P"><use transform="matrix(0.05,0,0,0.05,0,0)" xlink:href="#ao"/><use transform="matrix(0.05,0,0,0.05,10,0)" xlink:href="#am"/><use transform="matrix(0.05,0,0,0.05,19,0)" xlink:href="#ar"/></g><g id="Q"><use transform="matrix(0.05,0,0,0.05,0,0)" xlink:href="#at"/><use transform="matrix(0.05,0,0,0.05,5,0)" xlink:href="#bj"/><use transform="matrix(0.05,0,0,0.05,15,0)" xlink:href="#ar"/></g><g id="R"><use transform="matrix(0.05,0,0,0.05,0,0)" xlink:href="#as"/><use transform="matrix(0.05,0,0,0.05,3.95,0)" xlink:href="#aw"/><use transform="matrix(0.05,0,0,0.05,13.949999999999998,0)" xlink:href="#am"/><use transform="matrix(0.05,0,0,0.05,22.95,0)" xlink:href="#at"/></g><g id="S"><use transform="matrix(0.05,0,0,0.05,0,0)" xlink:href="#am"/><use transform="matrix(0.05,0,0,0.05,9,0)" xlink:href="#au"/><use transform="matrix(0.05,0,0,0.05,12.949999999999998,0)" xlink:href="#bk"/><use transform="matrix(0.05,0,0,0.05,22.95,0)" xlink:href="#av"/><use transform="matrix(0.05,0,0,0.05,32.95,0)" xlink:href="#aw"/><use transform="matrix(0.05,0,0,0.05,42.95,0)" xlink:href="#at"/><use transform="matrix(0.05,0,0,0.05,47.95,0)" xlink:href="#ao"/><use transform="matrix(0.05,0,0,0.05,57.95,0)" xlink:href="#ap"/><use transform="matrix(0.05,0,0,0.05,63.900000000000006,0)" xlink:href="#ar"/></g><g id="T"><use transform="matrix(0.05,0,0,0.05,0,0)" xlink:href="#aR"/><use transform="matrix(0.05,0,0,0.05,10,0)" xlink:href="#aw"/><use transform="matrix(0.05,0,0,0.05,20,0)" xlink:href="#at"/><use transform="matrix(0.05,0,0,0.05,25,0)" xlink:href="#ar"/></g><g id="U"><use transform="matrix(0.05,0,0,0.05,0,0)" xlink:href="#at"/><use transform="matrix(0.05,0,0,0.05,5,0)" xlink:href="#an"/></g><g id="V"><use transform="matrix(0.05,0,0,0.05,0,0)" xlink:href="#am"/><use transform="matrix(0.05,0,0,0.05,9,0)" xlink:href="#bj"/><use transform="matrix(0.05,0,0,0.05,19,0)" xlink:href="#an"/><use transform="matrix(0.05,0,0,0.05,29,0)" xlink:href="#bp"/></g><use transform="matrix(0.05,0,0,0.05,0,0)" xlink:href="#aw" id="W"/><g id="X"><use transform="matrix(0.05,0,0,0.05,0,0)" xlink:href="#aR"/><use transform="matrix(0.05,0,0,0.05,10,0)" xlink:href="#au"/><use transform="matrix(0.05,0,0,0.05,13.949999999999998,0)" xlink:href="#aS"/><use transform="matrix(0.05,0,0,0.05,18.6,0)" xlink:href="#aS"/></g><g id="Y"><use transform="matrix(0.05,0,0,0.05,0,0)" xlink:href="#an"/><use transform="matrix(0.05,0,0,0.05,10,0)" xlink:href="#aS"/></g><g id="Z"><use transform="matrix(0.05,0,0,0.05,0,0)" xlink:href="#aq"/><use transform="matrix(0.05,0,0,0.05,9,0)" xlink:href="#bj"/><use transform="matrix(0.05,0,0,0.05,19,0)" xlink:href="#aw"/><use transform="matrix(0.05,0,0,0.05,29,0)" xlink:href="#av"/><use transform="matrix(0.05,0,0,0.05,39,0)" xlink:href="#bk"/><use transform="matrix(0.05,0,0,0.05,49,0)" xlink:href="#ar"/><use transform="matrix(0.05,0,0,0.05,59,0)" xlink:href="#am"/></g><g id="aa"><use transform="matrix(0.05,0,0,0.05,0,0)" xlink:href="#am"/><use transform="matrix(0.05,0,0,0.05,9,0)" xlink:href="#au"/><use transform="matrix(0.05,0,0,0.05,12.949999999999998,0)" xlink:href="#av"/><use transform="matrix(0.05,0,0,0.05,22.95,0)" xlink:href="#aq"/><use transform="matrix(0.05,0,0,0.05,31.950000000000003,0)" xlink:href="#ar"/></g><g id="ab"><use transform="matrix(0.05,0,0,0.05,0,0)" xlink:href="#as"/><use transform="matrix(0.05,0,0,0.05,3.95,0)" xlink:href="#aw"/><use transform="matrix(0.05,0,0,0.05,13.949999999999998,0)" xlink:href="#am"/><use transform="matrix(0.05,0,0,0.05,22.95,0)" xlink:href="#at"/></g><path d="M33 0v-38h34V0H33" id="bt"/><g id="ac"><use transform="matrix(0.05,0,0,0.05,0,0)" xlink:href="#am"/><use transform="matrix(0.05,0,0,0.05,9,0)" xlink:href="#au"/><use transform="matrix(0.05,0,0,0.05,12.949999999999998,0)" xlink:href="#bk"/><use transform="matrix(0.05,0,0,0.05,22.95,0)" xlink:href="#av"/><use transform="matrix(0.05,0,0,0.05,32.95,0)" xlink:href="#aw"/><use transform="matrix(0.05,0,0,0.05,42.95,0)" xlink:href="#at"/><use transform="matrix(0.05,0,0,0.05,47.95,0)" xlink:href="#ao"/><use transform="matrix(0.05,0,0,0.05,57.95,0)" xlink:href="#ap"/><use transform="matrix(0.05,0,0,0.05,63.900000000000006,0)" xlink:href="#ar"/><use transform="matrix(0.05,0,0,0.05,73.9,0)" xlink:href="#bt"/></g><path d="M238-95c0 69-44 99-111 99C63 4 22-25 22-93v-155h51v151c-1 38 19 59 55 60 90 1 49-130 58-211h52v153" id="bu"/><g id="ad"><use transform="matrix(0.05,0,0,0.05,0,0)" xlink:href="#bu"/><use transform="matrix(0.05,0,0,0.05,12.950000000000001,0)" xlink:href="#aW"/><use transform="matrix(0.05,0,0,0.05,23.900000000000002,0)" xlink:href="#br"/><use transform="matrix(0.05,0,0,0.05,34.85,0)" xlink:href="#bf"/><use transform="matrix(0.05,0,0,0.05,44.85,0)" xlink:href="#aQ"/><use transform="matrix(0.05,0,0,0.05,50.800000000000004,0)" xlink:href="#aN"/></g><g id="ae"><use transform="matrix(0.05,0,0,0.05,0,0)" xlink:href="#bf"/><use transform="matrix(0.05,0,0,0.05,10,0)" xlink:href="#bd"/><use transform="matrix(0.05,0,0,0.05,20.950000000000003,0)" xlink:href="#br"/></g><g id="af"><use transform="matrix(0.05,0,0,0.05,0,0)" xlink:href="#aZ"/><use transform="matrix(0.05,0,0,0.05,10,0)" xlink:href="#aU"/><use transform="matrix(0.05,0,0,0.05,15,0)" xlink:href="#be"/><use transform="matrix(0.05,0,0,0.05,25.950000000000003,0)" xlink:href="#bd"/></g><path d="M114-157C55-157 80-60 75 0H25v-261h50l-1 109c12-26 28-41 61-42 86-1 58 113 63 194h-50c-7-57 23-157-34-157" id="bv"/><g id="ah"><use transform="matrix(0.05,0,0,0.05,0,0)" xlink:href="#aQ"/><use transform="matrix(0.05,0,0,0.05,5.95,0)" xlink:href="#bv"/><use transform="matrix(0.05,0,0,0.05,16.900000000000002,0)" xlink:href="#aN"/></g><g id="ai"><use transform="matrix(0.05,0,0,0.05,0,0)" xlink:href="#br"/><use transform="matrix(0.05,0,0,0.05,10.950000000000001,0)" xlink:href="#aN"/><use transform="matrix(0.05,0,0,0.05,20.950000000000003,0)" xlink:href="#aZ"/><use transform="matrix(0.05,0,0,0.05,30.950000000000003,0)" xlink:href="#aQ"/><use transform="matrix(0.05,0,0,0.05,36.900000000000006,0)" xlink:href="#aU"/><use transform="matrix(0.05,0,0,0.05,41.900000000000006,0)" xlink:href="#bd"/><use transform="matrix(0.05,0,0,0.05,52.85,0)" xlink:href="#bf"/><use transform="matrix(0.05,0,0,0.05,62.85,0)" xlink:href="#aQ"/><use transform="matrix(0.05,0,0,0.05,68.80000000000001,0)" xlink:href="#aU"/><use transform="matrix(0.05,0,0,0.05,73.80000000000001,0)" xlink:href="#aY"/><use transform="matrix(0.05,0,0,0.05,84.75000000000001,0)" xlink:href="#bd"/></g><g id="aj"><use transform="matrix(0.05,0,0,0.05,0,0)" xlink:href="#aP"/><use transform="matrix(0.05,0,0,0.05,10,0)" xlink:href="#aY"/><use transform="matrix(0.05,0,0,0.05,20.950000000000003,0)" xlink:href="#bc"/><use transform="matrix(0.05,0,0,0.05,25.950000000000003,0)" xlink:href="#bc"/><use transform="matrix(0.05,0,0,0.05,30.950000000000003,0)" xlink:href="#aN"/><use transform="matrix(0.05,0,0,0.05,40.95,0)" xlink:href="#aP"/><use transform="matrix(0.05,0,0,0.05,50.95,0)" xlink:href="#aQ"/><use transform="matrix(0.05,0,0,0.05,56.900000000000006,0)" xlink:href="#aU"/><use transform="matrix(0.05,0,0,0.05,61.900000000000006,0)" xlink:href="#aY"/><use transform="matrix(0.05,0,0,0.05,72.85000000000001,0)" xlink:href="#bd"/></g><g id="ak"><use transform="matrix(0.05,0,0,0.05,0,0)" xlink:href="#aK"/><use transform="matrix(0.05,0,0,0.05,5,0)" xlink:href="#aF"/><use transform="matrix(0.05,0,0,0.05,15,0)" xlink:href="#aI"/><use transform="matrix(0.05,0,0,0.05,20.95,0)" xlink:href="#ay"/><use transform="matrix(0.05,0,0,0.05,29.950000000000003,0)" xlink:href="#az"/><use transform="matrix(0.05,0,0,0.05,33.9,0)" xlink:href="#aA"/><use transform="matrix(0.05,0,0,0.05,43.9,0)" xlink:href="#aB"/></g><path d="M199 0l-22-63H83L61 0H9l90-248h61L250 0h-51zm-33-102l-36-108c-10 38-24 72-36 108h72" id="bw"/><g id="al"><use transform="matrix(0.05,0,0,0.05,0,0)" xlink:href="#bw"/><use transform="matrix(0.05,0,0,0.05,12.950000000000001,0)" xlink:href="#aP"/><use transform="matrix(0.05,0,0,0.05,22.950000000000003,0)" xlink:href="#aP"/><use transform="matrix(0.05,0,0,0.05,32.95,0)" xlink:href="#aN"/><use transform="matrix(0.05,0,0,0.05,42.95,0)" xlink:href="#aW"/><use transform="matrix(0.05,0,0,0.05,53.900000000000006,0)" xlink:href="#aQ"/></g></defs></g></svg>